Patient4_TMGait_0pt4_02_left_33_EMG.mot
version=1
nRows=30
nColumns=33
inDegrees=no
endheader
time	1LAddLong	2LGlutMax	3LGlutMed	4LIliopsoas	5LSemiMemb	6LBicFemLong	7LRecFem	8LVastMed	9LVastLat	10LGasMed	11LTibAnt	12lTibPost	13LPeroneusLong	14LSol	15LExtDigLong	16LFlexDigLong	17RAddLong	18RGlutMax	19RGlutMed	20RIliopsoas	21RSemiMemb	22RBicFemLong	23RRecFem	24RVastMed	25RVastLat	26RGasMed	27RTibAnt	28RTibPost	29RPeroneusLong	30RSol	31RExtDigLong	32RFlexDigLong
44.632	0.036163	-0.31799	0.042572	-0.004578	-0.0383	-0.071869	-0.26779	-0.006409	0.03479	0.024414	0.020142	0.055847	0.14938	0.18601	0.079803	0.007019	0.015564	0.16388	-0.21652	0.00473	0.070801	-0.021057	0.46661	-0.068512	-0.018768	0.000153	-0.012817	-0.010529	0.023499	-0.086823	-0.00351	-0.003052
44.633	0.023499	-0.26154	0.037384	0.00885	-0.039673	-0.1091	-0.28656	-0.001526	0.11002	0.042877	0.009613	0.063019	0.26977	0.15869	0.054779	0.003967	0.00473	0.18753	-0.20233	-0.002747	0.057068	0.00412	0.44037	-0.035553	-0.004578	0.002747	-0.072174	-0.007782	0.15457	-0.097656	0.000153	-0.002899
44.634	0.030212	-0.15549	0.1004	-0.007019	0.090332	-0.054779	-0.31769	0.001984	0.083923	0.085754	0.001526	0.062103	-0.018005	0.17853	0.045624	0.016327	-0.008087	0.13947	-0.21332	0.007629	0.048828	-0.018005	0.45166	-0.019989	-0.003204	-0.002136	0.121	-0.010376	0.089264	-0.067749	-0.003662	-0.000305
44.635	0.020905	-0.097198	0.1088	-0.001984	0.18127	0.084381	-0.28931	0.007477	0.06485	0.096283	0.000916	0.056458	-0.22461	0.094147	-0.008392	0.038452	-0.023346	0.1387	-0.215	0.019379	0.045166	-0.002899	0.4248	-0.043488	0	-0.005493	0.067291	0.001678	-0.051575	-0.014954	-0.001068	-0.000153
44.636	0.017395	-0.028534	-0.046539	0.028839	0.09079	0.14069	-0.27802	0.020752	0.024567	0.037079	-0.012665	0.044556	0.46188	0.12802	-0.042419	0.016022	-0.006714	0.12482	-0.21652	0.016022	0.046387	0.014954	0.42068	-0.024719	-0.020905	-0.006409	0.011139	-0.006866	-0.064545	0.017853	0.000763	-0.002899
44.637	0.010986	0.070038	-0.090179	0.000916	0.013275	0.045624	-0.29541	0.035095	0.012054	0.023956	0.04364	0.033264	0.88547	0.12344	-0.033264	0.009155	-0.009918	0.12238	-0.13825	-0.01358	0.039215	0.010529	0.42374	-0.060272	-0.027466	-0.001373	0.00412	-0.005341	-0.087738	0.018616	-0.000305	0.003357
44.638	-0.00412	0.066223	-0.005951	-0.003662	-0.020905	-0.019226	-0.34546	0.030518	0.003357	0.02594	0.05722	0.014954	-0.14145	-0.000153	-0.023956	0.010986	-0.044403	0.071564	-0.099182	0.066071	0.010376	-0.019684	0.40756	-0.086212	-0.027924	-0.00824	0.003815	-0.005951	-0.018158	0.065918	-0.001221	-0.003052
44.639	-0.01236	0.043488	-0.12131	0.009155	-0.042877	-0.023651	-0.40955	0.033875	0.015106	0.01358	0.036926	0.050812	-0.25375	0.021973	-0.021057	0.011597	-0.029297	0.053711	-0.033722	0.048828	0.004425	-0.011292	0.38956	-0.089874	-0.024414	-0.011444	0.00885	-0.009003	0.13092	0.06073	-0.000305	-0.007782
44.64	-0.018463	0.035248	-0.1387	0.014038	-0.071411	-0.029144	-0.41184	0.063171	0.072784	-0.016632	-0.008087	0.061951	-0.62592	0.15427	-0.046234	0.027161	-0.033417	0.018005	-0.25757	-0.020752	0.011292	0.006256	0.34027	-0.096283	-0.014496	-0.002747	0.022736	-0.007172	0.17548	0.02594	-0.001068	0.002747
44.641	-0.00885	0.072479	-0.010223	-0.008545	-0.085754	-0.016937	-0.48019	0.055237	0.10361	-0.012665	-0.039825	0.022888	-0.86899	0.080719	-0.08606	0.016937	-0.0177	0.061035	-0.31418	-0.12726	-0.015259	-0.048828	0.29358	-0.098572	-0.005951	-0.000305	-0.001526	-0.007629	0.20386	0.000763	-0.003662	-0.000305
44.642	0.007477	0.11231	0.1091	0.016174	-0.084686	-0.014954	-0.51987	0.023956	0.13245	0.036469	-0.027008	-0.002441	-0.29785	-0.085449	-0.23575	0.011749	0.02182	0.074005	-0.21042	-0.22385	-0.021973	-0.04303	0.26688	-0.076141	-0.016479	0.007782	-0.006866	-0.009003	0.16235	-0.027924	-0.00946	-0.000916
44.643	0.009155	0.027161	-0.013885	0.012207	-0.016174	0.011749	-0.33798	-0.029297	0.13138	-0.045319	-0.026703	-0.009613	-0.073242	-0.071411	-0.10407	0.021515	0.052795	0.036163	-0.19058	-0.10132	-0.006561	-0.012054	0.25635	-0.11795	-0.015106	0.006256	0.006714	-0.008545	0.066376	-0.056915	-0.004578	-0.009613
44.644	0.015259	0.020905	-0.1857	0.037537	0.093384	0.037384	-0.20935	-0.06134	0.009766	-0.056305	-0.013123	0	0.13947	-0.12573	0.052948	0.017548	0.074768	0.10025	-0.1181	0.062561	-0.005188	0.008087	0.26459	-0.040741	-0.010986	0.007172	0.024719	-0.009308	0.048065	0.016174	-0.005341	-0.002594
44.645	0.001526	-0.020752	-0.32333	0.010071	0.080872	0.066833	-0.21545	-0.06134	-0.032959	-0.007782	0.005646	-0.001221	-0.014648	-0.089111	0.03006	0.012817	0.059967	0.11337	-0.030212	0.13733	-0.001678	0.005188	0.24933	-0.010223	-0.026398	0.022125	0.026093	-0.007629	0.018158	0.10819	0	-0.000916
44.646	-0.016632	0.0737	-0.30884	0.000305	0.003662	0.071564	-0.24277	-0.045776	0.04776	0.010834	0.012054	-0.00351	-0.085602	0.014038	0.017395	0.017395	0.023651	0.17853	-0.018768	0.22064	0.009918	0.02121	0.26916	-0.055389	-0.02533	0.021362	0.0383	-0.002594	-0.18723	0.099335	-0.002594	0.000153
44.647	-0.024261	0.11444	-0.25589	-0.004883	-0.033417	0.04364	-0.27557	-0.031738	0.098267	0.026398	0.00473	-0.006561	-0.068512	-0.03418	-0.007935	0.013733	-0.001984	0.14694	0.006409	0.21957	0.015411	-0.013885	0.25848	-0.002289	-0.018005	0.021515	0.026703	-0.010071	-0.34027	0.11581	-0.002136	-0.003052
44.648	-0.02243	0.21439	0.14511	0.014954	-0.041656	-0.12131	-0.25955	-0.012207	0.07309	0.0177	-0.007629	-0.008545	-0.045166	-0.012054	-0.00946	0.010986	0.005646	0.17395	-0.007324	0.20462	0.010376	-0.000153	0.25116	0.007172	-0.012054	-0.000916	0.009155	-0.010376	-0.36331	0.11353	-0.003815	0.007172
44.649	-0.021362	0.23941	0.2623	0.03006	0.004425	0.022125	-0.26398	0.014496	-0.069733	0.023956	-0.001984	0.028381	-0.019531	-0.010986	-0.005951	0.011139	-0.051727	0.14343	-0.015564	0.25162	0.00824	0.02594	0.23636	0.004883	0.011139	0.001373	-0.003662	-0.011902	-0.29862	0.031281	-0.002594	0.006866
44.65	-0.011749	0.22873	0.20584	0.003967	0.052032	0.11459	-0.27206	0.026398	-0.060883	0.034943	-0.014801	0.080414	0.024261	-0.091248	0.004425	0.003204	-0.019531	0.087738	-0.020905	0.30868	0.019836	0.041351	0.23575	0.045624	0.009613	0.015106	-0.008087	-0.00412	-0.15396	-0.031281	-0.001831	0.002899
44.651	-0.012665	0.28686	0.18936	0.019226	-0.032959	0.25467	-0.23636	0.021515	0.034485	0.03006	-0.00824	-0.1236	0.020905	-0.22919	-0.007629	0.00412	0.007477	0.14603	-0.013275	0.22064	0.036774	0.002441	0.23331	0.036469	0.007935	0.001221	-0.02594	-0.003815	0.16098	-0.072632	-0.00824	0.00061
44.652	-0.005646	0.26489	0.093994	0.025482	-0.086517	0.12451	-0.14389	0.013428	0.045929	0.029297	0.013123	-0.037384	-0.0737	-0.35446	0.034332	-0.001221	0.009766	0.062103	-0.041199	0.028229	0.040894	-0.023499	0.27603	0.028229	0.001831	-0.011597	-0.047302	0.00061	0.52246	-0.16586	-0.001831	-0.004883
44.653	0.007782	0.26321	0.10925	0.000305	-0.047607	0.092468	-0.13062	-0.004425	0.014648	-0.03479	0.005035	-0.007782	-0.10284	-0.42679	0.070343	-0.022125	-0.023651	0.027008	-0.016632	-0.19028	0.031891	-0.012054	0.22751	-0.006104	-0.013123	-0.028992	-0.022278	0.001678	0.34088	0.1709	-0.003815	0.004425
44.654	-0.001678	0.24735	0.18173	-0.009003	0.031891	0.13901	-0.16281	-0.005951	-0.027313	-0.081329	0.003357	-0.017853	-0.11414	-0.29694	0.062256	-0.00885	-0.069275	-0.022278	0.086212	-0.26932	0.041962	-0.013275	0.29098	-0.011749	-0.033264	-0.024719	0.009155	-0.01297	0.082397	0.33554	-0.004425	-0.006409
44.655	0.004272	0.21606	0.07431	-0.009613	0.031433	0.047302	-0.21439	-0.00824	-0.01358	-0.14267	0.012207	-0.015259	-0.15732	-0.087891	0.06073	-0.035095	-0.0737	-0.050507	0.083771	-0.22278	0.019531	-0.007324	0.28046	-0.022736	-0.053253	-0.022125	-0.027618	-0.003967	0.036163	0.36118	-0.001831	-0.010071
44.656	-0.002899	0.15808	-0.011139	0.00412	-0.065308	0.002289	-0.23224	-0.01709	0.029297	-0.18463	0.009918	-0.014801	-0.17014	0.16419	0.048523	-0.041656	-0.051575	-0.020447	0.15793	-0.32181	-0.023346	0.084839	0.26977	-0.017548	-0.022888	0.000305	-0.025482	-0.008545	0.059814	0.45929	-0.003815	-0.008392
44.657	0.000763	0.12802	0.013885	0.009613	-0.085907	-0.030212	-0.20035	-0.00412	0.061951	-0.15793	0.001221	-0.018463	-0.1149	0.22064	0.036011	0.052948	-0.022888	0.033417	0.10635	-0.24033	-0.032349	0.19272	0.27802	-0.027771	-0.037079	0.004578	-0.017395	-0.005951	0.15823	0.26367	-0.002441	-0.003815
44.658	-0.004883	0.038757	-0.045319	0.014801	-0.032654	-0.015869	-0.19638	-0.002747	0.1712	-0.098267	-0.010376	-0.02243	0.00885	0.20599	0.014801	-0.044708	0.009155	0.014038	0.025635	-0.12375	-0.010681	0.14999	0.23254	-0.016937	-0.04715	0.009003	0.027771	-0.00946	0.12222	0.023804	-0.001373	-0.012512
44.659	-0.003967	-0.031738	-0.26199	-0.016785	-0.022888	0.040741	-0.16388	0.004425	0.26871	-0.055542	-0.052643	-0.028839	0.050049	0.24841	-0.015411	-0.096741	0.050659	0.007019	-0.093536	0.047455	0.002441	0.09903	0.21042	-0.020905	-0.04715	0.007629	0.11078	-0.006409	0.066833	-0.16419	-0.001068	-0.018311
44.66	0.001221	-0.064697	-0.30655	0.032806	0.011902	0.055542	-0.090485	0.001526	0.33386	-0.06424	-0.031433	-0.028534	0.14236	0.28275	-0.027466	0.20859	0.090637	-0.041962	-0.035706	0.20737	0.004425	0.093079	0.21255	0.022736	-0.034332	0.007172	0.15289	-0.00824	-0.12421	-0.19058	-0.005493	-0.007935
44.661	0.004272	0.040131	-0.12283	0.011597	0.04776	-0.16846	-0.11658	0.004272	0.22949	-0.099182	-0.006866	-0.006256	0.28336	0.27298	-0.010223	0.067444	0.14206	-0.02121	0.089111	0.26733	0.021973	0.091705	0.21973	0.07019	-0.040741	0.009155	0.1416	-0.004272	-0.12497	-0.17975	-0.009613	-0.011292
